<svg width="24" height="27" viewBox="0 0 24 27" fill="none" xmlns="http://www.w3.org/2000/svg">
<path d="M1.91667 8.69238C1.67355 8.69238 1.44039 8.79369 1.26849 8.97401C1.09658 9.15433 1 9.39891 1 9.65392V22.6347C1 24.452 2.47583 26.0001 4.20833 26.0001H19.7917C21.5242 26.0001 23 24.5271 23 22.7098V9.65392C23 9.39891 22.9034 9.15433 22.7315 8.97401C22.5596 8.79369 22.3264 8.69238 22.0833 8.69238H1.91667Z" stroke="black" stroke-width="2" stroke-linecap="round" stroke-linejoin="round"/>
<path d="M6.5 8.69231V6.76923C6.5 5.23914 7.07946 3.77171 8.11091 2.68977C9.14236 1.60783 10.5413 1 12 1V1C13.4587 1 14.8576 1.60783 15.8891 2.68977C16.9205 3.77171 17.5 5.23914 17.5 6.76923V8.69231" stroke="black" stroke-width="2" stroke-linecap="round" stroke-linejoin="round"/>
</svg>
