<svg width="73" height="26" viewBox="0 0 73 26" fill="none" xmlns="http://www.w3.org/2000/svg">
<path d="M8.04725 25.9894C5.87355 25.9031 4.09515 25.3083 2.70458 24.2036C2.43919 23.9925 1.80681 23.3598 1.59465 23.0929C1.03075 22.3838 0.647381 21.6938 0.391674 20.9281C-0.395173 18.5713 0.00978886 15.4786 1.54999 12.0845C2.86872 9.17865 4.90358 6.29665 8.4537 2.30509C8.97665 1.71775 10.534 0 10.544 0C10.5477 0 10.4629 0.147025 10.3561 0.326057C9.43298 1.87221 8.64316 3.69342 8.21288 5.27009C7.52169 7.79999 7.60506 9.97109 8.45705 11.6546C9.04476 12.8144 10.0523 13.819 11.1853 14.3743C13.1688 15.3461 16.0728 15.4265 19.6192 14.6095C19.8634 14.553 31.9624 11.3412 46.506 7.47208C61.0497 3.60261 72.951 0.43921 72.9529 0.441815C72.957 0.445165 39.1638 14.9055 21.6213 22.4073C18.8431 23.595 18.1002 23.895 16.7941 24.3536C13.4554 25.526 10.4647 26.0855 8.04725 25.9894Z" fill="black"/>
</svg>
