<svg width="25" height="25" viewBox="0 0 25 25" fill="none" xmlns="http://www.w3.org/2000/svg">
<path fill-rule="evenodd" clip-rule="evenodd" d="M18.9418 17.0727C20.5909 14.9458 21.3681 12.2703 21.1152 9.59055C20.8624 6.91078 19.5986 4.428 17.5809 2.64732C15.5633 0.866638 12.9432 -0.0781831 10.2539 0.00506908C7.56458 0.0883213 5.00797 1.19339 3.10419 3.09547C1.19875 4.99886 0.0905108 7.55748 0.0053032 10.2499C-0.0799044 12.9424 0.864337 15.566 2.64561 17.5862C4.42688 19.6063 6.91111 20.871 9.59208 21.1224C12.273 21.3738 14.9489 20.5931 17.0745 18.9394L17.1314 18.9989L22.7412 24.6123C22.8641 24.7352 23.0099 24.8327 23.1705 24.8992C23.331 24.9658 23.5031 25 23.6768 25C23.8506 25 24.0226 24.9658 24.1832 24.8992C24.3437 24.8327 24.4896 24.7352 24.6124 24.6123C24.7353 24.4894 24.8328 24.3435 24.8993 24.1829C24.9658 24.0223 25 23.8501 25 23.6763C25 23.5025 24.9658 23.3303 24.8993 23.1697C24.8328 23.0091 24.7353 22.8632 24.6124 22.7403L19.0013 17.1282C18.982 17.1092 18.9621 17.0906 18.9418 17.0727ZM16.1964 4.96748C16.9431 5.70236 17.5369 6.57786 17.9436 7.54348C18.3504 8.5091 18.562 9.54573 18.5662 10.5936C18.5705 11.6414 18.3673 12.6797 17.9685 13.6486C17.5696 14.6175 16.9829 15.4979 16.2423 16.2388C15.5016 16.9797 14.6217 17.5666 13.6532 17.9657C12.6846 18.3647 11.6467 18.5679 10.5993 18.5637C9.55189 18.5594 8.51567 18.3477 7.55043 17.9408C6.5852 17.5339 5.71004 16.9398 4.97545 16.1929C3.50743 14.7002 2.68849 12.6876 2.69701 10.5936C2.70554 8.49955 3.54083 6.49371 5.02096 5.013C6.50108 3.53228 8.50612 2.69665 10.5993 2.68813C12.6925 2.6796 14.7043 3.49887 16.1964 4.96748Z" fill="black"/>
</svg>
